<?xml version="1.0" standalone="no"?><svg xmlns:xlink="http://www.w3.org/1999/xlink" xmlns="http://www.w3.org/2000/svg" viewBox="0 0 1400 933.3333333333334" preserveAspectRatio="xMaxYMax slice"><g transform="scale(2.7450980392156863)"><rect x="0" y="0" width="510" height="340" fill="#ffffff"/><rect x="0" y="0" width="85" height="85" fill="#f7a17d"/><g transform="translate(0,0) scale(4.25) rotate(0)"><path d="M10 0H20L0 20V10L10 0Z" fill="#f26428"/><path d="M20 10V20H10L20 10Z" fill="#f26428"/></g><rect x="85" y="0" width="85" height="85" fill="#fbd0be"/><g transform="translate(85,0) scale(4.25) rotate(0)"><path d="M10 0H20L0 20V10L10 0Z" fill="#afe1f9"/><path d="M20 10V20H10L20 10Z" fill="#afe1f9"/></g><rect x="170" y="0" width="85" height="85" fill="#f58150"/><g transform="translate(170,0) scale(4.25) rotate(0)"><path d="M10 0H20L0 20V10L10 0Z" fill="#fcd5c5"/><path d="M20 10V20H10L20 10Z" fill="#fcd5c5"/></g><rect x="255" y="0" width="85" height="85" fill="#61c4f4"/><g transform="translate(255,0) scale(4.25) rotate(0)"><path d="M10 0H20L0 20V10L10 0Z" fill="#f79971"/><path d="M20 10V20H10L20 10Z" fill="#f79971"/></g><rect x="340" y="0" width="85" height="85" fill="#43b9f2"/><g transform="translate(340,0) scale(4.25) rotate(0)"><path d="M10 0H20L0 20V10L10 0Z" fill="#fac0a8"/><path d="M20 10V20H10L20 10Z" fill="#fac0a8"/></g><rect x="425" y="0" width="85" height="85" fill="#61c4f4"/><g transform="translate(425,0) scale(4.25) rotate(0)"><path d="M10 0H20L0 20V10L10 0Z" fill="#f68d61"/><path d="M20 10V20H10L20 10Z" fill="#f68d61"/></g><rect x="0" y="85" width="85" height="85" fill="#cdecfc"/><g transform="translate(0,85) scale(4.25) rotate(0)"><path d="M10 0H20L0 20V10L10 0Z" fill="#fdede5"/><path d="M20 10V20H10L20 10Z" fill="#fdede5"/></g><rect x="85" y="85" width="85" height="85" fill="#f8a684"/><g transform="translate(85,85) scale(4.25) rotate(0)"><path d="M10 0H20L0 20V10L10 0Z" fill="#b6e4fa"/><path d="M20 10V20H10L20 10Z" fill="#b6e4fa"/></g><rect x="170" y="85" width="85" height="85" fill="#f15a1a"/><g transform="translate(170,85) scale(4.25) rotate(0)"><path d="M10 0H20L0 20V10L10 0Z" fill="#99d9f8"/><path d="M20 10V20H10L20 10Z" fill="#99d9f8"/></g><rect x="255" y="85" width="85" height="85" fill="#f58556"/><g transform="translate(255,85) scale(4.25) rotate(0)"><path d="M10 0H20L0 20V10L10 0Z" fill="#74cbf5"/><path d="M20 10V20H10L20 10Z" fill="#74cbf5"/></g><rect x="340" y="85" width="85" height="85" fill="#fabfa6"/><g transform="translate(340,85) scale(4.25) rotate(0)"><path d="M10 0H20L0 20V10L10 0Z" fill="#f69065"/><path d="M20 10V20H10L20 10Z" fill="#f69065"/></g><rect x="425" y="85" width="85" height="85" fill="#eff9fe"/><g transform="translate(425,85) scale(4.25) rotate(0)"><path d="M10 0H20L0 20V10L10 0Z" fill="#f15614"/><path d="M20 10V20H10L20 10Z" fill="#f15614"/></g><rect x="0" y="170" width="85" height="85" fill="#79cdf6"/><g transform="translate(0,170) scale(4.25) rotate(0)"><path d="M10 0H20L0 20V10L10 0Z" fill="#f15818"/><path d="M20 10V20H10L20 10Z" fill="#f15818"/></g><rect x="85" y="170" width="85" height="85" fill="#fcd6c6"/><g transform="translate(85,170) scale(4.25) rotate(0)"><path d="M10 0H20L0 20V10L10 0Z" fill="#f47c49"/><path d="M20 10V20H10L20 10Z" fill="#f47c49"/></g><rect x="170" y="170" width="85" height="85" fill="#6fc9f5"/><g transform="translate(170,170) scale(4.25) rotate(0)"><path d="M10 0H20L0 20V10L10 0Z" fill="#f25f22"/><path d="M20 10V20H10L20 10Z" fill="#f25f22"/></g><rect x="255" y="170" width="85" height="85" fill="#f8aa8a"/><g transform="translate(255,170) scale(4.25) rotate(0)"><path d="M10 0H20L0 20V10L10 0Z" fill="#f3672c"/><path d="M20 10V20H10L20 10Z" fill="#f3672c"/></g><rect x="340" y="170" width="85" height="85" fill="#f36f38"/><g transform="translate(340,170) scale(4.25) rotate(0)"><path d="M10 0H20L0 20V10L10 0Z" fill="#6bc7f5"/><path d="M20 10V20H10L20 10Z" fill="#6bc7f5"/></g><rect x="425" y="170" width="85" height="85" fill="#f47a47"/><g transform="translate(425,170) scale(4.25) rotate(0)"><path d="M10 0H20L0 20V10L10 0Z" fill="#bde6fa"/><path d="M20 10V20H10L20 10Z" fill="#bde6fa"/></g><rect x="0" y="255" width="85" height="85" fill="#bae5fa"/><g transform="translate(0,255) scale(4.25) rotate(0)"><path d="M10 0H20L0 20V10L10 0Z" fill="#7ccef6"/><path d="M20 10V20H10L20 10Z" fill="#7ccef6"/></g><rect x="85" y="255" width="85" height="85" fill="#fac2ab"/><g transform="translate(85,255) scale(4.25) rotate(0)"><path d="M10 0H20L0 20V10L10 0Z" fill="#b5e3fa"/><path d="M20 10V20H10L20 10Z" fill="#b5e3fa"/></g><rect x="170" y="255" width="85" height="85" fill="#f69064"/><g transform="translate(170,255) scale(4.25) rotate(0)"><path d="M10 0H20L0 20V10L10 0Z" fill="#fbd3c2"/><path d="M20 10V20H10L20 10Z" fill="#fbd3c2"/></g><rect x="255" y="255" width="85" height="85" fill="#fbd3c2"/><g transform="translate(255,255) scale(4.25) rotate(0)"><path d="M10 0H20L0 20V10L10 0Z" fill="#90d6f7"/><path d="M20 10V20H10L20 10Z" fill="#90d6f7"/></g><rect x="340" y="255" width="85" height="85" fill="#f3713b"/><g transform="translate(340,255) scale(4.25) rotate(0)"><path d="M10 0H20L0 20V10L10 0Z" fill="#e6f6fd"/><path d="M20 10V20H10L20 10Z" fill="#e6f6fd"/></g><rect x="425" y="255" width="85" height="85" fill="#bae5fa"/><g transform="translate(425,255) scale(4.25) rotate(0)"><path d="M10 0H20L0 20V10L10 0Z" fill="#b8e4fa"/><path d="M20 10V20H10L20 10Z" fill="#b8e4fa"/></g></g></svg>