<svg xmlns="http://www.w3.org/2000/svg" version="1.1" xmlns:xlink="http://www.w3.org/1999/xlink" xmlns:svgjs="http://svgjs.com/svgjs" width="1440" height="560" preserveAspectRatio="none" viewBox="0 0 1440 560"><g mask="url(&quot;#SvgjsMask1009&quot;)" fill="none"><rect width="1440" height="560" x="0" y="0" fill="url(#SvgjsLinearGradient1010)"></rect><path d="M 0,84 C 57.6,110.2 172.8,222.2 288,215 C 403.2,207.8 460.8,60.4 576,48 C 691.2,35.6 748.8,136.8 864,153 C 979.2,169.2 1036.8,121.2 1152,129 C 1267.2,136.8 1382.4,179.4 1440,192L1440 560L0 560z" fill="rgba(52, 179, 241, 1)"></path><path d="M 0,502 C 96,470 288,343.4 480,342 C 672,340.6 768,495 960,495 C 1152,495 1344,372.6 1440,342L1440 560L0 560z" fill="rgba(241, 84, 18, 1)"></path></g><defs><mask id="SvgjsMask1009"><rect width="1440" height="560" fill="#ffffff"></rect></mask><linearGradient x1="15.28%" y1="-39.29%" x2="84.72%" y2="139.29%" gradientUnits="userSpaceOnUse" id="SvgjsLinearGradient1010"><stop stop-color="#0e2a47" offset="0"></stop><stop stop-color="rgba(0, 69, 158, 1)" offset="1"></stop></linearGradient></defs></svg>